# xmcd
#
# Track frame offsets:
#	750
#	19407
#	37302
#	48974
#	72790
#	98110
#	110307
#	130655
#	143752
#	165629
#	174953
#	187250
#	207249
#	229512
#	253211
#
# Disc length: 3384 seconds
#
# Revision: 0
# Processed by: cddbd v1.5.1PL0 Copyright (c) Steve Scherf et al.
# Submitted via: dBpowerAMP V4.0
#
DISCID=d10d2e0f
DTITLE=Otto Öllinger and Freunde - So wia's is
DYEAR=1900
DGENRE=
TTITLE0=Schöne Frau
TTITLE1=Schlof ned ei
TTITLE2=Verdi (Instrumental)
TTITLE3=Du muaßt a weng a Bazi sei
TTITLE4=Da kloane Ma
TTITLE5=Und i sog hoid oiwei
TTITLE6=Romance (instrumental)
TTITLE7=Liebeslied
TTITLE8=S'Kinderlied
TTITLE9=Amorada (Instrumental)
TTITLE10=Ich bin ein Mann der Blässe
TTITLE11=Da Baam
TTITLE12=O mei!
TTITLE13=Auf Wiedersehen (Instrumental)
TTITLE14=DATA
EXTD=
EXTT0=
EXTT1=
EXTT2=
EXTT3=
EXTT4=
EXTT5=
EXTT6=
EXTT7=
EXTT8=
EXTT9=
EXTT10=
EXTT11=
EXTT12=
EXTT13=
EXTT14=
PLAYORDER=
